<svg version="1.2" xmlns="http://www.w3.org/2000/svg" viewBox="0 0 966 966" width="966" height="966"><defs><linearGradient id="P" gradientUnits="userSpaceOnUse"/><linearGradient id="g1" x2="1" href="#P" gradientTransform="matrix(-89.873,243.074,-428.459,-158.417,488.821,348.887)"><stop stop-color="#19002b"/><stop offset="1" stop-color="#16608d"/></linearGradient><linearGradient id="g2" x2="1" href="#P" gradientTransform="matrix(195.835,-157.881,168.946,209.56,393.662,512.513)"><stop stop-color="#172550"/><stop offset="1" stop-color="#17496f"/></linearGradient></defs><style>.a{fill:#1fa2b7}.b{fill:#133152}.c{fill:url(#g1)}.d{fill:#176d93}.e{fill:url(#g2)}.f{fill:#a0d822}</style><path class="a" d="m310.6 223.1c4.6-6.5 13.2-16.4 18.5-22.8l40.5-49.3q37-45.8 74.6-91.2c5.2-6.3 34.7-43.8 38.9-45 10.3 11 20.8 24.6 30.5 36.5l44.7 54.6c32 39.2 65.2 77.8 96.7 117.4q-31.3 0.5-62.6 0.5c-0.8 35.3-0.4 72.3-0.3 107.6l-76.5 0.2c-0.6 28-1.5 56.9-0.3 84.7-8.3-9.9-27-32.5-33.1-43.1-11.2-12.9-23.1-29.4-34-43.1-23.3-0.1-50.8-0.7-73.9 0.6l-0.2-107.5z"/><path class="b" d="m310.6 224.1c4.6-6.5 13.2-16.4 18.5-22.8l40.5-49.3q37-45.8 74.6-91.2c5.2-6.3 34.7-43.8 38.9-45-0.9 9.9-0.5 25.5-0.6 35.8l0.1 62.2c0.2 55.2 0.7 111 0.6 166.2 0 15.5 2 82.8-1 94.2-11.2-12.9-23.1-29.4-34-43.1-23.3-0.1-50.8-0.7-73.9 0.6l-0.2-107.5z"/><path class="c" d="m263.2 255.5c-1.9 17-3 32.6-2.5 49.7 3.5 124.6 98.2 236.5 223.2 253.6 55 7.1 110.9-3.3 159.5-29.9 15.2-8.3 26-16.3 39.6-26.6 6.3-6.2 15.4-13.7 22.3-20.2-2.5 5.3-7.1 13.5-10.6 18-4.4 9.4-13.1 20.6-19.8 28.5-28.9 34.3-63 59.2-105.3 74.8-21.8 8-44.6 13.1-67.7 15-55.3 7.3-136.8-17.9-177.2-56.4-25.9-17.2-59.9-69.9-70.7-99.6-26-71.9-21.1-138.3 9.2-206.9z"/><path class="d" d="m324.7 562c4.1 1.2 5.6 2.6 9.1 5.1 2.7-2.2 3.1-3.4 6.8-2.9 21.9 3 43.9 14.6 63.7 24.3 8.7 4.2 18.1 12.9 27.5 15.6 11.6 3.4 38.9 1.4 45.7 13.3 6.7 2.6 16-2.5 24.4 1-55.3 7.3-136.8-17.9-177.2-56.4z"/><path class="b" d="m683 502.3c6.3-6.2 15.4-13.7 22.3-20.2-2.5 5.3-7.1 13.5-10.6 18 0.3-1.9 0.6-2.9 0-4.7-3.8 0.3-5.1 5.1-11.7 6.9z"/><path class="e" d="m374.6 351q32.8 0.2 65.5-0.1c5.2 8 14.4 19.2 20.4 27q20 26.1 40.5 51.9c10.7 13.4 23.3 28.2 33 42.3-1.5-38.4 0.5-81.2 0.1-120.1 17.6 0.8 40.2 0.5 57.8 0.1-0.5 55.6-1 116.3-0.1 171.8 0.1 2.6 0.2 3.5-0.4 6.1-6 6.1-50.5 9.3-60.4 9.6-1.9-1.7-3.6-3.6-5.1-5.6-31.3-38-63.2-75.9-93.6-114.5 1.1 33-0.1 74.1 0 107.6-17.8-8.4-41.3-22.6-57.3-33.9z"/><path class="f" d="m277 152c5.6 0 10 8.6 12.7 12.9-4 4.4-10.7 10.4-15.2 14.7-55.6 53.5-87.4 127.2-88.3 204.5-2.1 76.2 26.5 150.1 79.3 205.1 54.4 57.2 129.5 90.2 208.5 91.5 147.3 2.7 279.7-114.4 288.6-261.8 1.2-19.8 0.4-19.2 20-18.3 0.2 8.9-0.3 16.3-0.9 25.1-7.5 77.6-44.8 149.2-104.1 199.9-61.9 53.4-142.6 79.8-224.1 73.4-81.9-6.4-157.9-44.9-211.6-107-54-62.1-80.8-143.3-74.3-225.4 6.4-87.4 43.5-157.7 109.4-214.6z"/><path class="d" d="m708.8 230.4c2.6 1.5 31.1 40.6 35.9 46.6 10.8-5.1 40.9-14.1 53.4-18.1-3.1 5.4-29.7 40.5-34.1 45.7 11.7 16.4 21.2 34.2 34.3 50.1-12.9-5.3-28.2-10.5-41.4-15.3l-15.5-5.8c-12 15.7-24.2 30.8-36 46.7 0.9-19.1 1-38 1.8-57-5.1-1.5-13.1-5-18.4-6.9-12.5-4.5-25.3-9-37.5-14.1 15.4-5.1 39.5-11 56.1-15.6-0.4-16.4 0.9-39.5 1.4-56.3z"/><path class="b" d="m180.2 718h16.9q2.9 0 4 1.4 1.3 1.2 1.3 3v82.5q0 2.9-0.5 5.7-0.6 2.9-2.9 5.3-2.1 2.2-6.4 3.7-4.4 1.4-12.2 1.4-5.1 0-9.1-0.1-4-0.1-7.4-1-3.3-0.9-6.1-2.8-2.9-1.9-5.7-5.2l-60.8-70.5h-1v75.2q0 1.8-1.3 3.1-1.1 1.3-4 1.3h-16.9q-2.8 0-4.2-1.3-1.3-1.3-1.3-3.1v-82.5q0-3 0.4-5.9 0.6-2.8 2.3-5.1 1.7-2.2 4.9-3.6 3.2-1.5 8.7-1.5h14.3q4.7 0 7.6 0.5 3 0.5 4.9 1.6 2.1 1 3.8 2.8 1.7 1.7 3.8 4.2l60.6 70.5h1v-75.2q0-1.8 1.1-3 1.2-1.4 4.2-1.4zm40.6 0h109.3q1.1 0 3.2 0.7 2.1 0.8 2.1 3.7v9.7q0 2.9-2.1 3.7-2.1 0.7-3.2 0.7h-109.3q-1.1 0-3.2-0.6-1.9-0.8-1.9-3.6v-9.8q0-3 1.9-3.7 2.1-0.8 3.2-0.8zm23.4 60.3v12.8q0 6.4 4.9 8.9 5.2 2.5 13.9 2.5h66.9q3 0 4.2 1.3 1.3 1.2 1.3 3v10q0 1.7-1.3 3-1.2 1.2-4.2 1.2h-67.5q-13.6 0-22.8-2.5-8.9-2.6-14.2-7.4-5.3-4.7-7.6-11.3-2.1-6.8-2.1-15v-16.5q0-1.5 0.8-3 0.7-1.7 2.4-2.8 1.9-1.2 4.8-2 3-0.7 7.4-0.7h98q2.9 0 4 1.2 1.3 1.3 1.3 3v9.9q0 1.7-1.3 3.1-1.1 1.3-4 1.3zm184.3-10.7l50.9 47.9q1.4 1.3 1.4 2.3 0 3.2-4.4 3.2h-22q-3.1 0-4.2-0.5-1-0.6-2.5-2.1l-38.4-35.8-38.5 35.9q-1.6 1.4-2.9 2-1.1 0.5-3.8 0.5h-20.9q-4.2 0-4.2-3 0-1.2 1.4-2.5l52.2-48.6-47.1-43.4q-1.2-1.1-1.2-2.5 0-3 4.2-3h22.1q2.4 0 3.8 0.6 1.5 0.5 2.8 1.9l33.6 32 35.8-32q1.5-1.4 2.6-1.9 1.4-0.6 4-0.6h20.9q4.4 0 4.4 3 0 1.5-1.3 2.5zm105.1-49.6h81.7q2.9 0 4 1.4 1.3 1.2 1.3 3v9.7q0 1.8-1.3 3.1-1.1 1.3-4 1.3h-80.8q-7 0-11 1.5-4 1.4-6.1 3.9-1.9 2.5-2.2 5.8-0.4 3.4-0.4 7.3v28.9q0 3.8 0.4 7.3 0.3 3.4 2.2 5.9 1.9 2.4 5.9 3.9 4 1.4 11.2 1.4h53.2q2.3 0 3.7-0.8 1.3-0.7 1.9-1.9 0.5-1.2 0.5-2.5 0.2-1.3 0.2-2.5v-17.3h-47.5q-3 0-4.2-1.4-1.1-1.4-1.1-3.1 0-1.2-0.4-3.4-0.2-2.4 0-4.8 0.2-2.3 1.4-4.1 1.3-1.7 4.3-1.7h67.3q3.6 0 5.1 1.7 1.5 1.6 1.5 3.8v33.3q0 3.8-0.7 7.9-0.6 4-2.9 7.5-2.3 3.4-6.6 5.6-4.2 2.3-11.6 2.3h-65q-14.6 0-23.9-2.9-9.2-2.9-14.3-8-5.1-5.1-7-12.4-1.7-7.2-1.7-16v-24.6q0-8.5 1.7-15.6 1.9-7.1 6.8-12.4 5.1-5.2 14.3-8.1 9.3-3 24.1-3zm103.2 0h109.3q1.1 0 3.2 0.7 2.1 0.8 2.1 3.7v9.7q0 2.9-2.1 3.6-2.1 0.8-3.2 0.8h-109.3q-1.1 0-3.2-0.6-1.9-0.8-1.9-3.7v-9.7q0-3 1.9-3.8 2.1-0.7 3.2-0.7zm23.4 60.2v12.9q0 6.4 4.9 8.9 5.1 2.5 13.9 2.5h66.9q3 0 4.1 1.2 1.4 1.3 1.4 3v10q0 1.8-1.4 3-1.1 1.3-4.1 1.3h-67.5q-13.7 0-22.8-2.5-8.9-2.6-14.2-7.4-5.4-4.7-7.6-11.4-2.1-6.7-2.1-15v-16.5q0-1.5 0.7-3 0.8-1.6 2.5-2.7 1.9-1.3 4.7-2 3.1-0.8 7.5-0.8h98q2.8 0 4 1.3 1.3 1.2 1.3 3v9.9q0 1.7-1.3 3.1-1.2 1.2-4 1.2zm221-60.2h16.9q2.9 0 4 1.4 1.3 1.2 1.3 3v82.5q0 2.8-0.5 5.7-0.6 2.9-2.9 5.3-2.1 2.2-6.4 3.7-4.4 1.4-12.2 1.4-5.1 0-9.1-0.1-4-0.2-7.4-1-3.3-0.9-6.1-2.8-2.9-1.9-5.7-5.2l-60.8-70.5h-1v75.2q0 1.8-1.3 3.1-1.1 1.3-4 1.3h-16.9q-2.8 0-4.2-1.3-1.3-1.3-1.3-3.1v-82.5q0-3 0.4-5.9 0.5-2.8 2.3-5.1 1.7-2.2 4.9-3.6 3.2-1.5 8.7-1.5h14.3q4.7 0 7.6 0.5 3 0.5 4.9 1.6 2.1 1 3.8 2.8 1.7 1.7 3.8 4.2l60.6 70.5h1v-75.2q0-1.8 1.1-3 1.2-1.4 4.2-1.4z"/><path class="d" d="m209.6 836.3h49.1q6.1 0 10 1.4 3.9 1.2 6.2 3.5 2.3 2.3 3.2 5.3 0.9 3.1 0.9 6.6 0 3.5-0.9 6.6-0.9 3.1-3.2 5.4-2.3 2.3-6.2 3.7-3.9 1.3-10 1.3h-36.4v21.5q0 1-0.7 1.8-0.7 0.7-2.3 0.7h-9.7q-1.6 0-2.4-0.7-0.6-0.8-0.6-1.8v-29.4q0-1 0.6-1.7 0.8-0.7 2.4-0.7h46.3q2.5 0 3.9-0.4 1.5-0.6 2.2-1.5 0.8-0.9 1-2.1 0.3-1.2 0.3-2.5 0-1.4-0.3-2.6-0.2-1.2-1-2.1-0.7-0.9-2.2-1.4-1.4-0.5-3.9-0.5h-46.3q-1.6 0-2.4-0.7-0.6-0.7-0.6-1.7 0-0.8-0.2-2.1-0.1-1.3 0-2.7 0.1-1.3 0.7-2.2 0.8-1 2.5-1zm103.9-0.8q2.9 0 4.9 0.6 2.1 0.6 3.6 1.6 1.6 0.9 2.7 2.2 1.1 1.3 2.1 2.9l29.9 48.5q0.4 0.7 0.4 1.2 0 0.7-0.7 1.2-0.7 0.4-1.7 0.4h-11.4q-2.2 0-3.1-1.6l-26.5-43.4h-0.4l-13.8 22.9h13.1q2.2 0 3.1 1.4 0.3 0.4 1 1.5 0.7 1 1.4 2 0.7 1.1 1.1 2.1 0.6 0.9 0.6 1.4 0 0.9-1 1.6-0.9 0.6-2.4 0.6h-23.3l-6.1 10q-0.8 1.5-3 1.5h-11.7q-2.4 0-2.4-1.6 0-0.7 0.3-1.2l29.7-48.5q1.9-3.1 5-5.1 3.1-2.2 8.6-2.2zm96.7 34.5l18.4 20.9q0.6 0.5 0.5 1.6-0.2 1.5-2.5 1.5h-11.5q-1.6 0-2.2-0.4-0.7-0.4-1.2-1l-16.6-19.1q-1.7-2.1-3.5-2.7-1.7-0.7-5.7-0.7h-10.8v21.5q0 1.6-1.2 2-1.1 0.4-1.8 0.4h-9.8q-0.6 0-1.9-0.4-1.1-0.4-1.1-2v-52.8q0-1.7 1.1-2.1 1.3-0.4 1.9-0.4h9.8q0.7 0 1.8 0.4 1.2 0.4 1.2 2.1v20.9h9.8q3.7 0 5.5-0.6 1.9-0.6 3.6-2.7l16.1-18.7q0.2-0.3 0.4-0.5 0.4-0.2 0.8-0.5 0.6-0.4 2.3-0.4h10.6q1.9 0 2.4 1 0.5 1-0.3 1.9l-17.6 20.3q-1.6 1.7-2.8 3.1-1.1 1.2-2.1 1.9 1.5 0.9 3.1 2.3 1.7 1.4 3.3 3.2zm27-33.7h9.8q0.7 0 1.8 0.4 1.2 0.5 1.2 2.1v52.8q0 1.6-1.2 2.1-1.1 0.4-1.8 0.4h-9.8q-0.6 0-1.8-0.4-1.1-0.5-1.1-2.1v-52.8q0-1.6 1.1-2.1 1.2-0.4 1.8-0.4zm36.4 12.1v9.1q0 0.9 0.8 1.5 1 0.6 2.2 0.6h31.9q4.9 0 8.1 1.2 3.3 1.2 5.2 3.2 1.9 2.1 2.6 4.7 0.9 2.6 0.9 5.4v6.1q0 2.7-1 5.3-0.8 2.5-2.8 4.4-2.1 1.9-5.4 3-3.2 1.1-7.8 1.1h-48q-1.7 0-2.5-0.7-0.6-0.7-0.6-1.7v-5.6q0-1 0.6-1.7 0.8-0.7 2.5-0.7h45.4q2.6 0 3.2-1.1 0.6-1.3 0.6-2.7v-6q0-1.4-0.6-2.6-0.6-1.3-3.1-1.3h-31.9q-8.8 0-12.8-3.3-3.8-3.3-3.8-9.1v-9.1q0-2.1 0.7-4.2 0.8-2.2 2.6-3.9 1.9-1.7 5.1-2.9 3.3-1.1 8.4-1.1h45.9q1.6 0 2.2 0.7 0.7 0.7 0.7 1.7v5.6q0 1-0.7 1.7-0.6 0.7-2.2 0.7h-43.3q-1.1 0-2.2 0.5-0.9 0.5-0.9 1.2zm60.6-12.1h70.5q0.7 0 1.9 0.4 1.1 0.4 1.1 2v5.5q0 0.8-0.4 1.4-0.3 0.5-0.8 0.7-0.5 0.2-1 0.3-0.5 0.1-0.8 0.1h-27.4v44.9q0 1.6-1.2 2.1-1 0.3-1.8 0.3h-9.8q-0.6 0-1.8-0.3-1.1-0.5-1.1-2.1v-44.9h-27.4q-0.3 0-0.8-0.1-0.6-0.1-1.1-0.3-0.4-0.2-0.9-0.7-0.3-0.6-0.3-1.4v-5.5q0-1.6 1.2-2 1.2-0.4 1.9-0.4zm102.3-0.7q2.9 0 4.9 0.5 2.1 0.6 3.6 1.6 1.6 0.9 2.7 2.2 1.1 1.3 2.1 2.9l29.9 48.5q0.4 0.7 0.4 1.2 0 0.7-0.7 1.2-0.7 0.4-1.7 0.4h-11.4q-2.2 0-3.1-1.6l-26.5-43.4h-0.4l-13.8 22.9h13.1q2.2 0 3.1 1.4 0.3 0.4 1 1.5 0.7 1 1.4 2 0.7 1.1 1.1 2.1 0.6 0.9 0.6 1.4 0 0.9-1 1.6-0.9 0.6-2.4 0.6h-23.3l-6.1 10q-0.8 1.5-3 1.5h-11.7q-2.4 0-2.4-1.6 0-0.7 0.3-1.2l29.7-48.5q1.9-3.1 5-5.1 3.1-2.1 8.6-2.1zm111.6 0.7h9.5q1.6 0 2.2 0.8 0.8 0.7 0.8 1.7v46.2q0 1.6-0.4 3.2-0.3 1.6-1.5 2.9-1.2 1.3-3.7 2.1-2.4 0.8-6.8 0.8-2.8 0-5.1-0.1-2.2 0-4.1-0.5-1.8-0.5-3.4-1.6-1.6-1-3.2-2.9l-34.1-39.5h-0.5v42.1q0 1-0.8 1.8-0.6 0.7-2.2 0.7h-9.5q-1.6 0-2.3-0.7-0.7-0.8-0.7-1.8v-46.1q0-1.7 0.2-3.3 0.3-1.6 1.2-2.9 1-1.3 2.8-2 1.8-0.9 4.9-0.9h8q2.6 0 4.2 0.3 1.7 0.3 2.8 0.9 1.2 0.6 2.1 1.5 1 1 2.2 2.4l33.9 39.5h0.5v-42.1q0-1 0.7-1.7 0.6-0.8 2.3-0.8z"/></svg>